<?xml version="1.0" standalone="no"?>
<!DOCTYPE svg PUBLIC "-//W3C//DTD SVG 20010904//EN"
 "http://www.w3.org/TR/2001/REC-SVG-20010904/DTD/svg10.dtd">
<svg version="1.0" xmlns="http://www.w3.org/2000/svg"
 width="203.000000pt" height="203.000000pt" viewBox="0 0 203.000000 203.000000"
 preserveAspectRatio="xMidYMid meet">
<metadata>
Created by potrace 1.11, written by Peter Selinger 2001-2013
</metadata>
<g transform="translate(0.000000,203.000000) scale(0.100000,-0.100000)"
fill="#000000" stroke="none">
<path d="M419 2013 c-97 -16 -189 -62 -259 -129 -33 -31 -60 -63 -60 -71 0 -7
-4 -13 -8 -13 -20 0 -71 -134 -79 -205 -8 -71 -7 -1122 1 -1169 12 -71 18 -90
52 -156 76 -146 215 -241 379 -258 39 -4 313 -7 610 -6 532 1 541 1 610 23 86
28 156 69 208 124 36 39 77 95 77 107 0 3 -334 5 -743 5 -731 0 -743 1 -787
21 -56 26 -129 96 -155 149 -19 38 -20 62 -20 585 l0 545 24 48 c30 58 80 105
146 137 42 20 66 24 145 24 87 0 100 -2 159 -32 l64 -32 34 20 c19 11 41 20
49 20 8 0 14 4 14 8 0 10 -1 10 102 16 87 6 152 -9 208 -47 l35 -24 36 24
c128 84 323 62 432 -51 77 -78 78 -92 78 -568 0 -227 0 -420 0 -429 -1 -13
-16 -16 -101 -15 l-100 0 0 414 c0 366 -2 417 -16 442 -37 62 -139 76 -190 25
l-29 -29 -5 -426 -5 -425 -98 0 -97 -1 -1 71 c0 38 -1 223 -1 410 0 367 0 368
-54 408 -55 41 -145 26 -174 -29 -11 -19 -14 -115 -14 -442 l-1 -417 -100 0
-100 0 -1 405 c-1 223 -2 412 -3 421 -1 16 -23 44 -53 68 -48 37 -144 15 -170
-39 -21 -43 -19 -975 2 -1008 35 -53 19 -52 813 -52 579 0 736 3 739 13 10 28
1 1143 -9 1167 -6 14 -11 29 -11 33 0 32 -71 152 -115 197 -39 40 -77 71 -77
62 0 -4 -4 -2 -8 4 -16 25 -126 70 -198 80 -78 12 -1104 9 -1175 -3z"/>
</g>
</svg>
